<svg xmlns="http://www.w3.org/2000/svg" fill="none" viewBox="0 0 91 31">
  <path fill="#00A9E0" d="M2.29999 17.7382c1.3 0 2.30002-1.0034 2.30002-2.3077 0-1.3044-1.00002-2.3077-2.30002-2.3077C.999988 13.1228 0 14.1261 0 15.4305c0 1.3043.999988 2.3077 2.29999 2.3077Zm0 12.7425c1.3 0 2.30002-1.0033 2.30002-2.3076 0-1.3044-1.00002-2.3077-2.30002-2.3077C.999988 25.8654 0 26.8687 0 28.1731c0 1.204.999988 2.3076 2.29999 2.3076ZM15 17.7382c1.3 0 2.3-1.0034 2.3-2.3077 0-1.3044-1-2.3077-2.3-2.3077-1.3 0-2.3 1.0033-2.3 2.3077 0 1.3043 1 2.3077 2.3 2.3077Zm0 12.7425c1.3 0 2.3-1.0033 2.3-2.3076 0-1.3044-1-2.3077-2.3-2.3077-1.3 0-2.3 1.0033-2.3 2.3077 0 1.204 1 2.3076 2.3 2.3076Zm12.6-12.7425c1.3 0 2.3-1.0034 2.3-2.3077 0-1.3044-1-2.3077-2.3-2.3077-1.3 0-2.3 1.0033-2.3 2.3077 0 1.3043 1 2.3077 2.3 2.3077ZM2.29999 5.0961c1.3 0 2.30002-1.00336 2.30002-2.30771 0-1.30434-1.00002-2.307677-2.30002-2.307677C.999988.480713 0 1.48405 0 2.78839 0 4.09274.999988 5.0961 2.29999 5.0961ZM15 5.0961c1.3 0 2.3-1.00336 2.3-2.30771 0-1.30434-1-2.307677-2.3-2.307677-1.3 0-2.3 1.003337-2.3 2.307677 0 1.30435 1 2.30771 2.3 2.30771Zm12.6 0c1.3 0 2.3-1.00336 2.3-2.30771 0-1.30434-1-2.307677-2.3-2.307677-1.3 0-2.3 1.003337-2.3 2.307677 0 1.30435 1 2.30771 2.3 2.30771Zm0 25.3846c1.3 0 2.3-1.0033 2.3-2.3076 0-1.3044-1-2.3077-2.3-2.3077-1.3 0-2.3 1.0033-2.3 2.3077 0 1.204 1 2.3076 2.3 2.3076Zm12.6-12.7425c1.3 0 2.3-1.0034 2.3-2.3077 0-1.3044-1-2.3077-2.3-2.3077-1.3 0-2.3 1.0033-2.3 2.3077 0 1.3043 1.1 2.3077 2.3 2.3077Zm0 12.7425c1.3 0 2.3-1.0033 2.3-2.3076 0-1.3044-1-2.3077-2.3-2.3077-1.3 0-2.3 1.0033-2.3 2.3077 0 1.204 1.1 2.3076 2.3 2.3076Zm0-25.3846c1.3 0 2.3-1.00336 2.3-2.30771 0-1.30434-1-2.307677-2.3-2.307677-1.3 0-2.3 1.003337-2.3 2.307677 0 1.30435 1.1 2.30771 2.3 2.30771Z"/>
  <path fill="#000" d="M86.8 30.2801c.1 0 .2-.1003.2-.2007V19.5443c0-.1003 0-.1003.1-.1003h3c.1 0 .2-.1004.2-.2007v-1.1037c0-.1003-.1-.2006-.2-.2006h-7.9c-.1 0-.2.1003-.2.2006v1.1037c0 .1003.1.2007.2.2007h2.9c.1 0 .1.1003.1.1003v10.5351c0 .1004.1.2007.2.2007h1.4Zm-12-12.2408c-.1 0-.2.1003-.2.2007v11.9398c0 .1003.1.2006.2.2006h1.4c.1 0 .2-.1003.2-.2006V18.24c0-.1004-.1-.2007-.2-.2007h-1.4Zm-8.3 0c-.1 0-.2.1003-.2.2007v11.9398c0 .1003.1.2006.2.2006h1.4c.1 0 .2-.1003.2-.2006V18.24c0-.1004-.1-.2007-.2-.2007h-1.4Zm-10.8 1.505c0-.1003.1-.1003.1-.1003h4.8c.1 0 .2-.1004.2-.2007v-1.1037c0-.1003-.1-.2006-.2-.2006h-6.4c-.1 0-.2.1003-.2.2006v11.9398c0 .1004.1.2007.2.2007h1.4c.1 0 .2-.1003.2-.2007v-5.3177h3.8c.1 0 .2-.1003.2-.2007v-1.1036c0-.1004-.1-.2007-.2-.2007h-3.8v-3.7124h-.1ZM90.9.882045c0-.200669-.1-.200682-.2-.200682h-2.3c-.1 0-.2.100347-.2.200682V9.10948c0 1.20402-.7 1.80602-2 1.80602s-2-.602-2-1.80602V.882045c0-.200669-.1-.200682-.2-.200682h-2.3c-.2 0-.2.100347-.2.200682V9.20979c0 2.40801 1.3 3.91311 4.7 3.91311 3.3 0 4.7-1.5051 4.7-3.91311V.882045ZM72.4 12.9222c.2 0 .2-.1004.2-.2007V2.98907c0-.10033 0-.10034.1-.10034h2.9c.1 0 .2-.10034.2-.20068V.982385c0-.200669-.1-.200681-.2-.200681h-8.7c-.2 0-.2.100347-.2.200681V2.68805c0 .20067.1.20068.2.20068h2.8c.1 0 .1.10034.1.10034v9.73243c0 .2007.1.2007.2.2007h2.4Zm-18.8-.5017c1.2.602 2.3.7024 3.7.7024 2.6 0 4.3-1.3044 4.3-3.71243 0-1.70568-.8-2.80937-2.9-3.71238-1.8-.70234-2.1-1.10366-2.1-1.70567 0-.70234.5-1.20403 1.6-1.20403.8 0 1.5.10033 2.1.40134.2.10033.3.00002.3-.10031l.8-1.60536c.1-.10034.1-.20069-.1-.30102-1.2-.501677-2-.702327-3.6-.702327-2.5 0-4 1.505017-4 3.511707 0 1.80602.9 2.90969 3 3.8127 1.6.70234 2 1.10369 2 1.80604 0 .70234-.6 1.20404-1.6 1.20404-1.2 0-1.8-.2007-2.5-.6021-.1-.1003-.2 0-.3.1004l-.8 1.806c0 .1004 0 .2007.1.301Z"/>
</svg>
